# xmcd
#
# Track frame offsets:
#	150
#	21447
#	32052
#	39999
#	61446
#	72092
#	88314
#	110316
#	142609
#	161303
#	174506
#	180311
#	193839
#	208872
#	217939
#	230896
#	247440
#	267715
#	284109
#
# Disc length: 3879 seconds
#
# Revision: 0
# Processed by: cddbd v1.5.2PL0 Copyright (c) Steve Scherf et al.
# Submitted via: EasyCDDAExtractor 11.5.3.1
#
DISCID=240f2513
DTITLE=Hallvard T. Bjørgum and Friends - Peace will Come
DYEAR=1900
DGENRE=
TTITLE0=Peace Will Come
TTITLE1=Heaven Holds All My Treasure
TTITLE2=The Prodigal Son
TTITLE3=Free Field Stev
TTITLE4=Jonas Stev
TTITLE5=Rag Mama Rag
TTITLE6=Nils, Jens and Jedaug
TTITLE7=The Morning Walk
TTITLE8=Cartagena Holiday
TTITLE9=Thanskgiving Day
TTITLE10=Hallvard In Oslo
TTITLE11=Twilight
TTITLE12=Mother Smother
TTITLE13=March Of Sorrow
TTITLE14=Bartenders Blues
TTITLE15=One More Shot
TTITLE16=Long Black Veil
TTITLE17=Twilight
TTITLE18=Blaze Of Glory
EXTD=
EXTT0=
EXTT1=
EXTT2=
EXTT3=
EXTT4=
EXTT5=
EXTT6=
EXTT7=
EXTT8=
EXTT9=
EXTT10=
EXTT11=
EXTT12=
EXTT13=
EXTT14=
EXTT15=
EXTT16=
EXTT17=
EXTT18=
PLAYORDER=
